<svg xmlns="http://www.w3.org/2000/svg" width="1440" height="820" viewBox="0 0 1440 820" role="img" aria-labelledby="title desc">
  <title id="title">flow Kanban workspace preview</title>
  <desc id="desc">Dark Kanban board with five columns and seeded cards.</desc>
  <rect width="1440" height="820" fill="#081525"/>
  <circle cx="1180" cy="30" r="300" fill="#12364a" opacity=".45"/>
  <circle cx="90" cy="410" r="240" fill="#2a1d43" opacity=".28"/>
  <g font-family="Arial, sans-serif" fill="#f4f7fb">
    <text x="70" y="62" font-size="25" font-weight="700">Kanban board</text>
    <text x="1235" y="60" font-size="14" fill="#9caabd">● Session only</text>
    <line x1="70" y1="88" x2="1370" y2="88" stroke="#264057"/>
    <text x="70" y="175" font-size="13" fill="#b36ad0" font-weight="700" letter-spacing="2">BOARD</text>
    <text x="70" y="220" font-size="36" font-weight="700">Q3 product launch</text>
    <text x="1120" y="211" font-size="14" fill="#9caabd">8 cards</text>
    <rect x="1245" y="184" width="125" height="44" rx="5" fill="#f5bd27"/>
    <text x="1270" y="212" font-size="14" fill="#071321" font-weight="700">+ Add card</text>
  </g>
  <g transform="translate(70 260)">
    <g font-family="Arial, sans-serif">
      <g fill="#10253a" stroke="#264057"><rect width="244" height="360" rx="8"/><rect x="264" width="244" height="360" rx="8"/><rect x="528" width="244" height="360" rx="8"/><rect x="792" width="244" height="360" rx="8"/><rect x="1056" width="244" height="360" rx="8"/></g>
      <g fill="#35b9ee"><rect width="244" height="4" rx="2"/><rect x="264" width="244" height="4" rx="2"/><rect x="528" width="244" height="4" rx="2"/><rect x="792" width="244" height="4" rx="2"/><rect x="1056" width="244" height="4" rx="2"/></g>
      <g fill="#f4f7fb" font-size="16" font-weight="700"><text x="18" y="36">●　Backlog　 <tspan fill="#9caabd" font-size="12">2</tspan></text><text x="282" y="36">●　Up next　 <tspan fill="#9caabd" font-size="12">2</tspan></text><text x="546" y="36">●　In progress　 <tspan fill="#9caabd" font-size="12">2</tspan></text><text x="810" y="36">●　Review　 <tspan fill="#9caabd" font-size="12">1</tspan></text><text x="1074" y="36">●　Done　 <tspan fill="#9caabd" font-size="12">1</tspan></text></g>
      <g fill="#172d44" stroke="#2d465c">
        <rect x="12" y="60" width="220" height="112" rx="6"/><rect x="12" y="184" width="220" height="112" rx="6"/>
        <rect x="276" y="60" width="220" height="112" rx="6"/><rect x="276" y="184" width="220" height="112" rx="6"/>
        <rect x="540" y="60" width="220" height="112" rx="6"/><rect x="540" y="184" width="220" height="112" rx="6"/>
        <rect x="804" y="60" width="220" height="112" rx="6"/><rect x="1068" y="60" width="220" height="112" rx="6"/>
      </g>
      <g fill="#f4f7fb" font-size="14" font-weight="700"><text x="28" y="93">Map the user journey</text><text x="28" y="217">Review product analytics</text><text x="292" y="93">Write the launch brief</text><text x="292" y="217">Audit existing content</text><text x="556" y="93">Shape the design system</text><text x="556" y="217">Prototype the core flow</text><text x="820" y="93">QA the release candidate</text><text x="1084" y="93">Align with the team</text></g>
      <g fill="#b1bfd0" font-size="11"><text x="28" y="120">Outline the key moments from first touch...</text><text x="28" y="244">Pull the top friction points from the latest...</text><text x="292" y="120">Capture the audience, message, channels...</text><text x="292" y="244">Gather the strongest proof points and...</text><text x="556" y="120">Turn the visual direction into reusable...</text><text x="556" y="244">Make the happy path tangible enough...</text><text x="820" y="120">Check the critical paths on desktop...</text><text x="1084" y="120">Share the direction and agree on the...</text></g>
    </g>
  </g>
</svg>
